<?xml version="1.0" encoding="UTF-8" standalone="no"?>
<svg
   xmlns:dc="http://purl.org/dc/elements/1.1/"
   xmlns:cc="http://creativecommons.org/ns#"
   xmlns:rdf="http://www.w3.org/1999/02/22-rdf-syntax-ns#"
   xmlns:svg="http://www.w3.org/2000/svg"
   xmlns="http://www.w3.org/2000/svg"
   xmlns:sodipodi="http://sodipodi.sourceforge.net/DTD/sodipodi-0.dtd"
   xmlns:inkscape="http://www.inkscape.org/namespaces/inkscape"
   width="224.37119mm"
   height="224.3712mm"
   viewBox="0 0 224.37119 224.3712"
   version="1.1"
   id="svg8"
   sodipodi:docname="hatch_fill_extension.svg"
   inkscape:version="1.0.1 (179fe94779, 2021-01-06)">
  <defs
     id="defs2" />
  <sodipodi:namedview
     id="base"
     pagecolor="#ffffff"
     bordercolor="#666666"
     borderopacity="1.0"
     inkscape:pageopacity="0.0"
     inkscape:pageshadow="2"
     inkscape:zoom="0.7"
     inkscape:cx="554.79974"
     inkscape:cy="489.72193"
     inkscape:document-units="mm"
     inkscape:current-layer="layer1"
     inkscape:document-rotation="0"
     showgrid="false"
     inkscape:window-width="1920"
     inkscape:window-height="1134"
     inkscape:window-x="0"
     inkscape:window-y="0"
     inkscape:window-maximized="1"
     lock-margins="true"
     fit-margin-top="20"
     fit-margin-left="20"
     fit-margin-right="20"
     fit-margin-bottom="20" />
  <metadata
     id="metadata5">
    <rdf:RDF>
      <cc:Work
         rdf:about="">
        <dc:format>image/svg+xml</dc:format>
        <dc:type
           rdf:resource="http://purl.org/dc/dcmitype/StillImage" />
        <dc:title></dc:title>
      </cc:Work>
    </rdf:RDF>
  </metadata>
  <g
     inkscape:label="Ebene 1"
     inkscape:groupmode="layer"
     id="layer1"
     transform="translate(4.5669015,-7.9522005)">
    <g
       id="g82">
      <path
         id="rect46"
         style="fill:#fff5cd;fill-opacity:1;stroke:#808080;stroke-width:0.685133;stroke-linecap:round;stroke-linejoin:round;stop-color:#000000"
         d="m 34.692104,28.294767 h 51.021752 c 10.479707,0 18.916434,8.436732 18.916434,18.916439 v 51.021752 c 0,10.479712 -8.436727,18.916442 -18.916434,18.916442 H 34.692104 c -10.479707,0 -18.916439,-8.43673 -18.916439,-18.916442 V 47.211206 c 0,-10.479707 8.436732,-18.916439 18.916439,-18.916439 z" />
      <path
         style="fill:none;stroke:#003399;stroke-width:0.960753"
         d="M 17.041685,43.99931 28.298227,32.742768 c 4.242641,-4.242641 12.993942,-4.508661 8.751301,-0.26602 L 19.957645,49.568631 c -4.242641,4.242641 -4.242641,12.727922 0,8.485281 L 45.534809,32.476748 c 4.242641,-4.242641 12.727922,-4.242641 8.485281,0 L 19.957644,66.539194 c -4.242641,4.242641 -4.242641,12.727922 0,8.485281 L 62.505371,32.476748 c 4.242641,-4.242641 12.727922,-4.242641 8.485281,0 L 19.957643,83.509757 c -4.242641,4.242641 -4.242641,12.727922 0,8.485281 l 59.51829,-59.51829 c 4.242641,-4.242641 12.082348,-3.597066 7.839707,0.645575 L 20.603217,99.834746 c -4.242641,4.242644 -1.480523,9.965804 2.762118,5.723164 L 93.038802,35.884443 c 4.242641,-4.242641 8.450388,0.0349 4.207742,4.277539 L 27.642872,109.76565 c -4.242641,4.24265 1.58029,6.905 5.822931,2.66235 L 99.908892,45.984915 c 4.242638,-4.242641 4.782058,3.703226 0.539418,7.945867 L 41.411668,112.96742 c -4.242641,4.24264 4.242641,4.24264 8.485281,0 L 100.44831,62.416063 c 4.24264,-4.242641 4.24264,4.242641 0,8.485281 L 58.382231,112.96742 c -4.242641,4.24264 4.242641,4.24264 8.485281,0 L 100.44831,79.386625 c 4.24264,-4.242641 4.24264,4.242641 0,8.485281 L 75.352793,112.96742 c -4.242641,4.24264 4.242641,4.24264 8.485281,0 L 100.44831,96.357188 c 4.24264,-4.242641 4.15487,4.330412 -0.0878,8.573052 L 89.22915,116.06163 M 17.041685,101.44486 28.298227,112.7014 c 4.242641,4.24264 12.993942,4.50866 8.751301,0.26602 L 19.957645,95.875536 c -4.242641,-4.242641 -4.242641,-12.727922 0,-8.485281 l 25.577164,25.577165 c 4.242641,4.24264 12.727922,4.24264 8.485281,0 L 19.957644,78.904973 c -4.242641,-4.242641 -4.242641,-12.727922 0,-8.485281 l 42.547727,42.547728 c 4.242641,4.24264 12.727922,4.24264 8.485281,0 L 19.957643,61.93441 c -4.242641,-4.242641 -4.242641,-12.727922 0,-8.485281 l 59.51829,59.518291 c 4.242641,4.24264 12.082348,3.59706 7.839707,-0.64558 L 20.603217,45.609422 c -4.242641,-4.242641 -1.480523,-9.965804 2.762118,-5.723164 l 69.673468,69.673472 c 4.242641,4.24264 8.450387,-0.0349 4.207742,-4.27754 L 27.642873,35.678515 c -4.242641,-4.242641 1.58029,-6.904991 5.822931,-2.66235 l 66.443089,66.443089 c 4.242637,4.242636 4.782057,-3.703226 0.539417,-7.945867 L 41.411669,32.476748 c -4.242641,-4.242641 4.242641,-4.242641 8.485281,0 l 50.55136,50.551358 c 4.24264,4.242641 4.24264,-4.242641 0,-8.485281 L 58.382232,32.476749 c -4.242641,-4.242641 4.242641,-4.242641 8.485281,0 l 33.580797,33.580795 c 4.24264,4.242641 4.24264,-4.242641 0,-8.485281 L 75.352794,32.476749 c -4.242641,-4.242641 4.242641,-4.242641 8.485281,0 l 16.610235,16.610232 c 4.24264,4.242641 4.15487,-4.330413 -0.0878,-8.573053 L 89.229151,29.382544"
         id="path80" />
    </g>
    <g
       id="g100">
      <path
         id="rect48"
         style="fill:#fff5cd;fill-opacity:1;stroke:#808080;stroke-width:0.685133;stroke-linecap:round;stroke-linejoin:round;stop-color:#000000"
         d="m 129.52353,28.294767 h 51.02175 c 10.47971,0 18.91644,8.436732 18.91644,18.916439 v 51.021752 c 0,10.479712 -8.43673,18.916442 -18.91644,18.916442 h -51.02175 c -10.4797,0 -18.91644,-8.43673 -18.91644,-18.916442 V 47.211206 c 0,-10.479707 8.43674,-18.916439 18.91644,-18.916439 z" />
      <path
         style="fill:none;stroke:#669900;stroke-width:0.960753"
         d="m 115.69527,34.520294 0.56868,-0.568675 c 0.75823,-0.758233 10.23724,-4.580391 9.47901,-3.822158 l -11.74853,11.748527 c -2.82843,2.828427 -3.09445,8.751302 -0.26602,5.922875 l 16.38478,-16.384776 c 2.82842,-2.828427 8.48528,-2.828427 5.65685,0 l -22.04163,22.041631 c -2.82843,2.828427 -2.82843,8.485281 0,5.656854 L 141.4269,31.416087 c 2.82842,-2.828427 8.48528,-2.828427 5.65685,0 l -33.35534,33.355339 c -2.82843,2.828427 -2.82843,8.485281 0,5.656854 L 152.7406,31.416087 c 2.82843,-2.828427 8.48528,-2.828427 5.65686,0 l -44.66905,44.669048 c -2.82843,2.828427 -2.82843,8.485281 0,5.656854 l 50.3259,-50.325902 c 2.82843,-2.828427 8.48528,-2.828427 5.65686,0 l -55.98276,55.982756 c -2.82843,2.828427 -2.82843,8.485281 0,5.656854 l 61.63961,-61.63961 c 2.82843,-2.828427 8.33091,-2.674057 5.50248,0.15437 l -66.98772,66.987724 c -2.82843,2.828429 -1.62195,7.278799 1.20648,4.450369 l 70.23162,-70.231613 c 2.82842,-2.828427 6.43844,-0.781585 3.61001,2.046843 l -71.79479,71.79479 c -2.82842,2.82842 -0.13267,5.78952 2.69576,2.9611 l 72.06013,-72.060137 c 2.82843,-2.828427 5.16016,0.496695 2.33173,3.325122 L 123.15698,111.9114 c -2.82843,2.82843 1.25116,4.40569 4.07959,1.57726 l 68.56441,-68.564411 c 2.82843,-2.828427 3.45294,2.203922 0.62451,5.032349 l -64.15657,64.156562 c -2.82843,2.82843 2.91351,2.74335 5.74194,-0.0851 L 196.3404,55.698542 c 2.82843,-2.828427 2.82843,2.828427 0,5.656854 l -52.67268,52.672684 c -2.82843,2.82843 2.82842,2.82843 5.65685,0 L 196.3404,67.01225 c 2.82843,-2.828427 2.82843,2.828427 0,5.656854 l -41.35898,41.358976 c -2.82842,2.82843 2.82843,2.82843 5.65686,0 L 196.3404,78.325959 c 2.82842,-2.828427 2.82842,2.828427 0,5.656854 l -30.04527,30.045267 c -2.82843,2.82843 2.82843,2.82843 5.65686,0 L 196.3404,89.639667 c 2.82842,-2.828427 2.82842,2.828427 0,5.656854 l -18.73156,18.731559 c -2.82843,2.82843 2.81902,2.83784 5.64744,0.009 l 13.09353,-13.09353 c 2.82843,-2.828424 1.89553,3.76133 -0.9329,6.58976 l -7.6922,7.69219"
         id="path98" />
    </g>
    <g
       id="g120">
      <path
         id="rect50"
         style="fill:#fff5cd;fill-opacity:1;stroke:#808080;stroke-width:0.685133;stroke-linecap:round;stroke-linejoin:round;stop-color:#000000"
         d="m 34.692104,123.1262 h 51.021752 c 10.479707,0 18.916434,8.43673 18.916434,18.91644 v 51.02175 c 0,10.47971 -8.436727,18.91644 -18.916434,18.91644 H 34.692104 c -10.479707,0 -18.916439,-8.43673 -18.916439,-18.91644 v -51.02175 c 0,-10.47971 8.436732,-18.91644 18.916439,-18.91644 z" />
      <path
         style="fill:none;stroke:#ff6600;stroke-width:0.960753"
         d="m 25.274776,126.39152 -8.598201,14.89252 m 0.09909,7.82837 14.207163,-24.60753 m 4.837433,-0.37868 -19.044596,32.98621 m 0,8 23.663398,-40.98621 m 4.618802,0 -28.2822,48.98621 m 0,8 32.901002,-56.98621 m 4.618802,0 -37.519804,64.98621 m 0.10091,7.82522 42.037696,-72.81143 m 4.618803,0 -44.672093,77.37433 m 2.550242,3.58285 46.740653,-80.95718 m 4.618802,0 -48.300854,83.65953 m 3.519746,1.90362 49.39991,-85.56315 m 4.618802,0 -50.029099,86.65294 m 4.502357,0.20169 50.133037,-86.83297 m 4.20589,0.71519 -49.720124,86.11778 m 4.618802,0 48.809166,-84.53996 m 3.253275,2.36517 -47.443639,82.17479 m 4.618802,0 45.605281,-78.99066 m 2.14445,4.28571 -43.130929,74.70495 m 4.618802,0 39.870527,-69.05778 m -0.43459,8.75273 -34.817135,60.30505 m 4.618803,0 30.198332,-52.30505 m 0,8 -25.57953,44.30505 m 4.618802,0 20.960728,-36.30505 m 0,8 -16.29811,28.22916 m 5.257708,-1.10662 11.040402,-19.12254 m -0.48213,8.83507 -2.61258,4.52513 m -66.602078,7.04394 -14.89252,-8.5982 m -1.886638,-5.70805 24.60753,14.20716 m 8,0 -32.986209,-19.0446 m 0,-4.6188 40.986209,23.6634 m 8,0 -48.986209,-28.2822 m 0,-4.6188 56.986209,32.901 m 8,0 -64.986209,-37.51981 m 0,-4.6188 72.811425,42.0377 M 94.15,208.89551 16.775665,164.22342 m 0,-4.6188 80.957185,46.74065 m 2.70235,-3.0586 -83.659535,-48.30085 m 0,-4.61881 85.563155,49.39991 m 1.08978,-3.98961 -86.652935,-50.0291 m 0.02166,-4.60629 86.832965,50.13303 m 0,-4.6188 -86.117778,-49.72012 m 1.577825,-3.70785 84.539953,48.80917 m 0,-4.61881 -82.174792,-47.44363 m 3.184139,-2.78044 78.990653,45.60527 m 0,-4.6188 -74.704953,-43.13092 m 5.647178,-1.35841 69.057775,39.87053 m 0,-4.6188 -60.30505,-34.81714 m 8,0 52.30505,30.19833 m 0,-4.6188 -44.30505,-25.57953 m 8,0 36.30505,20.96073 m -0.0759,-4.66262 -28.22916,-16.29811 m 8,0 19.12254,11.0404 m -5.762339,-7.94569 -4.525125,-2.61258"
         id="path118" />
    </g>
    <g
       id="g142">
      <path
         id="rect44"
         style="fill:#fff5cd;fill-opacity:1;stroke:#808080;stroke-width:0.685133;stroke-linecap:round;stroke-linejoin:round;stop-color:#000000"
         d="m 129.52353,123.1262 h 51.02175 c 10.47971,0 18.91644,8.43673 18.91644,18.91644 v 51.02175 c 0,10.47971 -8.43673,18.91644 -18.91644,18.91644 h -51.02175 c -10.4797,0 -18.91644,-8.43673 -18.91644,-18.91644 v -51.02175 c 0,-10.47971 8.43674,-18.91644 18.91644,-18.91644 z" />
      <path
         style="fill:none;stroke:#ffcc00;stroke-width:0.960753"
         d="m 113.67296,132.44437 -2.06587,11.71613 m 0,23.03508 6.93032,-39.30379 m 4.51703,-2.5823 -12.1156,68.71102 m 2.74521,7.46623 13.61586,-77.21938 m 4.08659,-0.14116 -14.41246,81.73712 m 3.58368,2.71107 14.89049,-84.44819 m 4.06171,0 -15.18053,86.09303 m 3.936,0.71293 15.30623,-86.80596 m 4.06171,0 -15.31482,86.85463 m 4.06171,0 15.31482,-86.85463 m 4.0617,0 -15.31481,86.85463 m 4.0617,0 15.31482,-86.85463 m 4.0617,0 -15.31481,86.85463 m 4.06171,0 15.31481,-86.85463 m 4.06171,0 -15.31482,86.85463 m 4.06171,0 15.31481,-86.85463 m 4.06171,0 -15.31482,86.85463 m 4.06171,0 15.25207,-86.4988 m 3.84013,1.25665 -15.03049,85.24215 m 4.0617,0 14.63726,-83.01201 m 3.43023,3.58128 -14.00344,79.41745 m 4.16635,-0.59344 12.86439,-72.95761 m 0.36965,20.93872 -8.86066,50.25129 m 4.79319,-4.14843 4.06747,-23.06778"
         id="path140" />
    </g>
  </g>
</svg>
