<?xml version="1.0" encoding="UTF-8" standalone="no"?>
<svg
   xmlns:dc="http://purl.org/dc/elements/1.1/"
   xmlns:cc="http://creativecommons.org/ns#"
   xmlns:rdf="http://www.w3.org/1999/02/22-rdf-syntax-ns#"
   xmlns:svg="http://www.w3.org/2000/svg"
   xmlns="http://www.w3.org/2000/svg"
   xmlns:sodipodi="http://sodipodi.sourceforge.net/DTD/sodipodi-0.dtd"
   xmlns:inkscape="http://www.inkscape.org/namespaces/inkscape"
   id="svg8"
   version="1.1"
   viewBox="0 0 210 297"
   height="297mm"
   width="210mm"
   sodipodi:docname="hallo.svg"
   inkscape:version="1.0 (f822299173, 2020-05-11)">
  <defs
     id="defs2" />
  <sodipodi:namedview
     id="base"
     pagecolor="#ffffff"
     bordercolor="#666666"
     borderopacity="1.0"
     inkscape:pageopacity="0.0"
     inkscape:pageshadow="2"
     inkscape:zoom="1.4"
     inkscape:cx="390.52082"
     inkscape:cy="261.42218"
     inkscape:document-units="mm"
     inkscape:current-layer="layer1"
     inkscape:document-rotation="0"
     showgrid="false"
     inkscape:window-width="1680"
     inkscape:window-height="990"
     inkscape:window-x="0"
     inkscape:window-y="0"
     inkscape:window-maximized="1" />
  <metadata
     id="metadata5">
    <rdf:RDF>
      <cc:Work
         rdf:about="">
        <dc:format>image/svg+xml</dc:format>
        <dc:type
           rdf:resource="http://purl.org/dc/dcmitype/StillImage" />
        <dc:title></dc:title>
      </cc:Work>
    </rdf:RDF>
  </metadata>
  <g
     inkscape:label="Ebene 1"
     inkscape:groupmode="layer"
     id="layer1">
    <path
       style="fill:none;stroke:#000000;stroke-width:1.5;stroke-linecap:round;stroke-linejoin:round"
       d="m 43.369558,67.003572 c 0,0 -2.076753,-0.643059 -2.813553,-1.384447 -0.74623,-0.750877 -1.14771,-1.826404 -1.384447,-2.858213 -0.1032,-0.449795 -0.104596,-0.934974 0,-1.384446 0.236906,-1.01804 0.650057,-2.069778 1.384447,-2.813553 0.739067,-0.748512 1.790563,-1.184191 2.813553,-1.429106 0.463277,-0.110914 0.966192,-0.112417 1.429106,0 1.009313,0.245107 2.036845,0.692291 2.768893,1.429106 0.741387,0.746215 1.184191,1.790563 1.429106,2.813553 0.218361,0.912076 0.116326,1.882944 0,2.813553 -0.240038,1.920304 -0.888999,3.768755 -1.429106,5.627106 -0.826403,2.843413 -1.633607,5.70587 -2.768893,8.440658 -0.806604,1.943028 -1.629527,3.919389 -2.858213,5.627106 -0.768492,1.068105 -1.555242,2.305145 -2.768893,2.813553 -0.871884,0.365239 -1.962545,0.361748 -2.835883,0 -0.61268,-0.253781 -1.152995,-0.794096 -1.406776,-1.406776 -0.3589,-0.866461 0,-2.813553 0,-2.813553"
       id="path840"
       class="anim_writing"
       sodipodi:nodetypes="caaaaaaaaaaaaaaac" />
    <path
       style="fill:none;stroke:#000000;stroke-width:1.5;stroke-linecap:round;stroke-linejoin:round"
       d="m 43.369558,74.015124 c 0,0 8.578154,-2.471782 12.683318,-4.197999 0.957445,-0.402604 1.871349,-0.906416 2.768893,-1.429107 1.459328,-0.849849 2.935657,-1.699488 4.242659,-2.768893 1.03468,-0.846588 2.02918,-1.775608 2.813553,-2.858213 0.60939,-0.841091 1.183999,-1.75958 1.429106,-2.768893 0.112417,-0.462914 0.182298,-0.988999 0,-1.429106 -0.257809,-0.622406 -0.8067,-1.171297 -1.429106,-1.429106 -0.440107,-0.182298 -0.990459,-0.185785 -1.429106,0 -1.221449,0.517335 -1.998426,1.77842 -2.768894,2.858212 -1.221955,1.71254 -2.050079,3.684714 -2.858212,5.627106 -1.132006,2.720838 -2.013595,5.547504 -2.768893,8.395999 -0.615075,2.319665 -1.189729,4.668355 -1.429107,7.056212 -0.140323,1.399761 -0.543463,2.922767 0,4.22033 0.258232,0.616551 0.810542,1.153407 1.429107,1.406776 0.427046,0.174922 0.935309,0.106027 1.384446,0 1.020499,-0.240907 1.960519,-0.797032 2.813553,-1.406776 0.543805,-0.388709 1.005812,-0.889437 1.429106,-1.406777 1.069405,-1.307002 2.768894,-4.242659 2.768894,-4.242659"
       id="path876"
       class="anim_writing"
       sodipodi:nodetypes="caaaaaaaaaaaaaaaaac" />
    <path
       id="path842"
       style="fill:none;stroke:#000000;stroke-width:1.5;stroke-linecap:round;stroke-linejoin:round"
       d="m 80.231754,77.217524 c 0,0 -0.901107,-1.887 -1.704643,-2.493793 -0.886441,-0.669399 -2.053482,-0.966875 -3.160714,-1.055815 -0.934421,-0.07506 -1.887056,0.154555 -2.775433,0.453827 -0.891372,0.30028 -1.73853,0.76037 -2.492677,1.322487 -0.535945,0.399476 -1.016321,0.886555 -1.406776,1.429107 -0.604718,0.84028 -1.165685,1.762101 -1.406777,2.768893 -0.220141,0.919304 -0.217184,1.915876 0,2.835883 0.240907,1.0205 0.665341,2.072117 1.406777,2.813553 0.741436,0.741436 1.793054,1.165869 2.813553,1.406776 0.912763,0.215474 1.90079,0.215474 2.813553,0 1.020499,-0.240907 2.069774,-0.66769 2.813553,-1.406776 0.746155,-0.741447 1.026184,-1.841882 1.429106,-2.813553 1.136926,-2.741766 1.582768,-6.470734 2.768893,-8.462989 0,0 -1.152618,4.670534 -1.384446,7.056212 -0.136062,1.400181 -0.533147,2.918495 0,4.22033 0.249341,0.60884 0.777621,1.152572 1.384446,1.406776 0.439375,0.184057 0.965481,0.109447 1.429106,0 1.020499,-0.240907 1.965385,-0.790281 2.813553,-1.406776 0.532189,-0.386824 0.968137,-0.897323 1.384447,-1.406777 1.078998,-1.320412 2.858213,-4.242659 2.858213,-4.242659"
       class="anim_writing"
       sodipodi:nodetypes="caaaaaaaaaaaacaaaaaac" />
    <path
       id="path844"
       style="fill:none;stroke:#000000;stroke-width:1.5;stroke-linecap:round;stroke-linejoin:round"
       d="m 89.793354,79.64223 c 0,0 1.911993,-2.775015 2.813553,-4.198 1.46679,-2.315121 2.903175,-4.652806 4.22033,-7.056212 0.49593,-0.904921 0.98805,-1.816161 1.384446,-2.768893 0.573251,-1.377798 1.187745,-2.770012 1.429107,-4.242659 0.151687,-0.925503 0.3589,-1.947092 0,-2.813553 -0.257809,-0.622406 -0.763441,-1.325458 -1.429107,-1.429106 -1.026282,-0.159798 -2.036845,0.692291 -2.768893,1.429106 -0.741387,0.746215 -1.061033,1.828152 -1.429106,2.813553 -0.676531,1.811203 -1.035407,3.729678 -1.406777,5.627106 -0.63831,3.261294 -1.171725,6.554916 -1.406776,9.869765 -0.198479,2.799082 -1.073852,5.825822 0,8.418329 0.253781,0.61268 0.794096,1.152995 1.406776,1.406776 0.433231,0.17945 0.950396,0.107737 1.406777,0 1.020499,-0.240907 1.965385,-0.790281 2.813553,-1.406776 0.532188,-0.386824 0.968137,-0.897323 1.384446,-1.406777 1.078999,-1.320413 2.858217,-4.242659 2.858217,-4.242659"
       class="anim_writing"
       sodipodi:nodetypes="caaaaaaaaaaaaaaac" />
    <path
       id="path846"
       style="fill:none;stroke:#000000;stroke-width:1.5;stroke-linecap:round;stroke-linejoin:round"
       d="m 101.04718,79.64223 c 0,0 1.91199,-2.775015 2.81355,-4.198 1.46679,-2.315121 2.90317,-4.652807 4.22033,-7.056212 0.49593,-0.904921 0.98805,-1.81616 1.38445,-2.768893 0.57325,-1.377798 1.18774,-2.770013 1.4291,-4.242659 0.15169,-0.925503 0.3589,-1.947091 0,-2.813553 -0.25781,-0.622405 -0.76344,-1.325457 -1.4291,-1.429106 -1.02628,-0.1598 -2.03685,0.692289 -2.7689,1.429106 -0.74139,0.746215 -1.06103,1.828153 -1.4291,2.813553 -0.67653,1.811203 -1.03541,3.729678 -1.40678,5.627106 -0.63831,3.261294 -1.17173,6.554915 -1.40678,9.869765 -0.19848,2.799082 -1.07385,5.825822 0,8.418329 0.25378,0.612681 0.7941,1.152996 1.40678,1.406776 0.43323,0.17945 0.9504,0.107737 1.40678,0 1.0205,-0.240907 1.96538,-0.790282 2.81355,-1.406776 0.53219,-0.386824 0.96814,-0.897322 1.38445,-1.406777 1.079,-1.320412 2.85821,-4.242659 2.85821,-4.242659"
       class="anim_writing"
       sodipodi:nodetypes="caaaaaaaaaaaaaaac" />
    <path
       style="fill:none;stroke:#000000;stroke-width:1.5;stroke-linecap:round;stroke-linejoin:round"
       d="m 120.71976,74.015124 c 0,0 -1.87096,-0.213467 -2.7689,0 -1.02984,0.244822 -1.98057,0.805446 -2.83588,1.429106 -0.54011,0.393828 -1.01632,0.886554 -1.40678,1.429107 -0.60472,0.840279 -1.16568,1.762102 -1.40677,2.768893 -0.22014,0.919304 -0.21718,1.915876 0,2.835883 0.24091,1.020499 0.66533,2.072117 1.40677,2.813553 0.74144,0.741438 1.79306,1.165869 2.81356,1.406776 0.91276,0.215473 1.90079,0.215474 2.81355,0 1.0205,-0.240907 1.96052,-0.797033 2.81355,-1.406776 0.54381,-0.388709 1.03786,-0.8648 1.42911,-1.406777 0.6118,-0.847484 1.14753,-1.795514 1.38444,-2.813553 0.21257,-0.913444 0.21257,-1.900109 0,-2.813553 -0.23691,-1.018039 -0.6477,-2.072105 -1.38444,-2.813553 -0.7508,-0.7556 -1.80816,-1.608069 -2.85821,-1.429106 -0.65382,0.111432 -1.13551,0.814353 -1.38445,1.429106 -0.35201,0.869282 -0.21257,1.900109 0,2.813553 0.23691,1.01804 0.64539,2.074418 1.38445,2.813553 0.75083,0.750903 1.82397,1.166047 2.85821,1.406777 1.3629,0.31723 2.8361,0.321501 4.198,0 1.0205,-0.240907 1.96782,-0.786949 2.81355,-1.406777 0.53496,-0.392064 1.38445,-1.429106 1.38445,-1.429106"
       id="path848"
       sodipodi:nodetypes="caaaaaaaaaaaaaaaaaaaac"
       class="anim_writing" />
  </g>
  <style
     id="pathanim_path840">
        #path840 {
          animation-name: path840;
          stroke-dasharray: 57.577414125246285 !important;
        }

        @keyframes path840 {
          0%, 0% {stroke-dashoffset: 57.577414125246285;}
          14.128%, 100% {stroke-dashoffset: 0;}
        }
</style>
  <style
     id="pathanim_path876">
        #path876 {
          animation-name: path876;
          stroke-dasharray: 78.09680319117616 !important;
        }

        @keyframes path876 {
          0%, 14.128% {stroke-dashoffset: 78.09680319117616;}
          33.29%, 100% {stroke-dashoffset: 0;}
        }
</style>
  <style
     id="pathanim_path842">
        #path842 {
          animation-name: path842;
          stroke-dasharray: 69.7847583028399 !important;
        }

        @keyframes path842 {
          0%, 33.29% {stroke-dashoffset: 69.7847583028399;}
          50.413%, 100% {stroke-dashoffset: 0;}
        }
</style>
  <style
     id="pathanim_path844">
        #path844 {
          animation-name: path844;
          stroke-dasharray: 70.25961089028763 !important;
        }

        @keyframes path844 {
          0%, 50.413% {stroke-dashoffset: 70.25961089028763;}
          67.652%, 100% {stroke-dashoffset: 0;}
        }
</style>
  <style
     id="pathanim_path846">
        #path846 {
          animation-name: path846;
          stroke-dasharray: 70.25961056402151 !important;
        }

        @keyframes path846 {
          0%, 67.652% {stroke-dashoffset: 70.25961056402151;}
          84.891%, 100% {stroke-dashoffset: 0;}
        }
</style>
  <style
     id="pathanim_path848">
        #path848 {
          animation-name: path848;
          stroke-dasharray: 61.576903629846505 !important;
        }

        @keyframes path848 {
          0%, 84.891% {stroke-dashoffset: 61.576903629846505;}
          100.0%, 100% {stroke-dashoffset: 0;}
        }
</style>
  <style
     id="anim_writing">
        .anim_writing {
          animation-duration: 8.0s;
          animation-timing-function: linear;
          animation-delay: 0.0s;
          animation-iteration-count: infinite;
          animation-fill-mode: forwards;
          }
</style>
</svg>
