<?xml version="1.0" encoding="UTF-8" standalone="no"?>
<!-- Created with Inkscape (http://www.inkscape.org/) -->

<svg
   xmlns:dc="http://purl.org/dc/elements/1.1/"
   xmlns:cc="http://creativecommons.org/ns#"
   xmlns:rdf="http://www.w3.org/1999/02/22-rdf-syntax-ns#"
   xmlns:svg="http://www.w3.org/2000/svg"
   xmlns="http://www.w3.org/2000/svg"
   xmlns:sodipodi="http://sodipodi.sourceforge.net/DTD/sodipodi-0.dtd"
   xmlns:inkscape="http://www.inkscape.org/namespaces/inkscape"
   width="193.744049072266mm"
   height="76.6988677978516mm"
   viewBox="0 0 193.744049072265 76.6988677978516"
   version="1.1"
   id="svg8"
   inkscape:version="0.92.3 (b1b3369, 2018-06-06)"
   sodipodi:docname="ink_line_animation_timing_functions.svg">
  <defs
     id="defs2" />
  <sodipodi:namedview
     id="base"
     pagecolor="#ffffff"
     bordercolor="#666666"
     borderopacity="1.0"
     inkscape:pageopacity="0.0"
     inkscape:pageshadow="2"
     inkscape:zoom="0.699999999630654"
     inkscape:cx="352.269292206306"
     inkscape:cy="62.1467341052055"
     inkscape:document-units="mm"
     inkscape:current-layer="g986"
     showgrid="false"
     inkscape:window-width="1280"
     inkscape:window-height="964"
     inkscape:window-x="0"
     inkscape:window-y="0"
     inkscape:window-maximized="1" />
  <metadata
     id="metadata5">
    <rdf:RDF>
      <cc:Work
         rdf:about="">
        <dc:format>image/svg+xml</dc:format>
        <dc:type
           rdf:resource="http://purl.org/dc/dcmitype/StillImage" />
        <dc:title></dc:title>
      </cc:Work>
    </rdf:RDF>
  </metadata>
  <g
     inkscape:label="Layer 1"
     inkscape:groupmode="layer"
     id="layer1"
     transform="translate(-8.12797546386719,-110.15055847168)">
    <rect
       style="opacity:1;vector-effect:none;fill:none;fill-opacity:1;fill-rule:evenodd;stroke:#724239;stroke-width:4;stroke-linecap:round;stroke-linejoin:round;stroke-miterlimit:4;stroke-dasharray:none;stroke-dashoffset:0;stroke-opacity:1;paint-order:markers stroke fill"
       id="rect915"
       width="189.744049072266"
       height="72.6988677978516"
       x="10.1279754638672"
       y="112.15055847168" />
    <g
       id="g986">
      <path
         class="anim_a"
         inkscape:connector-curvature="0"
         id="path815"
         d="m 50.6501049563126,148.499992370606 a 14.78636805856,14.78636805856 0 0 1 -14.78636805856,14.78636805856 14.78636805856,14.78636805856 0 0 1 -14.78636805856,-14.78636805856 14.78636805856,14.78636805856 0 0 1 14.78636805856,-14.78636805856 14.78636805856,14.78636805856 0 0 1 14.78636805856,14.78636805856 z"
         style="opacity:1;vector-effect:none;fill:none;fill-opacity:1;fill-rule:evenodd;stroke:#724239;stroke-width:2;stroke-linecap:round;stroke-linejoin:round;stroke-miterlimit:4;stroke-dasharray:none;stroke-dashoffset:0;stroke-opacity:1;paint-order:markers stroke fill" />
      <g
         aria-label="ease"
         style="font-style:normal;font-variant:normal;font-weight:normal;font-stretch:normal;font-size:6.6423583031px;line-height:1.25;font-family:'Ubuntu Condensed';-inkscape-font-specification:'Ubuntu Condensed, ';letter-spacing:0px;word-spacing:0px;fill:#000000;fill-opacity:1;stroke:none;stroke-width:0.2645833194"
         id="text950">
        <path
           d="m 31.303965947628,174.45754513979 q 0.0066423583,0.252409615516 0.046496508121,0.464965081214 0.039854149818,0.205913107396 0.1262048077583,0.365329706669 0.092993016243,0.152774240971 0.2391248989106,0.239124898911 0.1527742409706,0.08635065794 0.385256781578,0.08635065794 0.1926283907891,0 0.3520449900627,-0.05313886643 0.1660589575768,-0.05978122473 0.2391248989106,-0.09963537455 l 0.1062777328491,0.458322722912 q -0.08635065794,0.05978122473 -0.2922637653351,0.126204807758 -0.1992707490921,0.07306594133 -0.478249797821,0.07306594133 -0.3653297066689,0 -0.6177393221856,-0.132847166061 -0.2457672572135,-0.132847166062 -0.4051838564872,-0.371972064972 -0.1527742409706,-0.239124898911 -0.2191978240013,-0.571242814064 -0.066423583031,-0.332117915154 -0.066423583031,-0.730659413338 0,-0.963141953945 0.3188331985473,-1.408179960251 0.3188331985474,-0.445038006305 0.8435795044899,-0.445038006305 0.5911698889733,0 0.8369371461868,0.445038006305 0.2457672572136,0.445038006306 0.2457672572136,1.248763360977 0,0.07306594133 0,0.152774240971 0,0.07306594133 -0.0066423583,0.152774240971 z m 0.5778851723671,-1.5144576931 q -0.285621407032,0 -0.4184685730934,0.285621407032 -0.1262048077583,0.285621407032 -0.1527742409706,0.763871204853 h 1.0561349701881 q 0,-0.484892156124 -0.099635374546,-0.763871204853 -0.099635374546,-0.285621407032 -0.3852567815781,-0.285621407032 z"
           style="stroke-width:0.2645833194"
           id="path1061" />
        <path
           d="m 33.8582639741898,172.617611889839 q 0.1727013158798,-0.07306594133 0.3653297066688,-0.112920091152 0.192628390789,-0.04649650812 0.4184685730934,-0.04649650812 0.4649650812149,0 0.75722884655,0.292263765335 0.2922637653351,0.285621407032 0.2922637653351,0.896718370914 v 2.311540689468 q -0.2391248989105,0.06642358303 -0.4915345144272,0.10627773285 -0.2457672572136,0.03985414982 -0.4848921561241,0.03985414982 -0.2391248989105,0 -0.4516803646088,-0.05978122473 -0.2059131073951,-0.05978122473 -0.3653297066688,-0.192628390789 -0.1527742409706,-0.132847166061 -0.2457672572136,-0.332117915153 -0.092993016243,-0.205913107395 -0.092993016243,-0.49817687273 0,-0.272336690426 0.079708299637,-0.471607439518 0.08635065794,-0.205913107396 0.2324825406075,-0.338760273457 0.1461318826675,-0.139489524364 0.3454026317596,-0.205913107395 0.1992707490921,-0.07306594133 0.4317532896996,-0.07306594133 0.2191978240013,0 0.4848921561241,0.05313886643 v -0.318833198548 q 0,-0.385256781578 -0.1527742409706,-0.538031022548 -0.1461318826675,-0.152774240971 -0.4251109313965,-0.152774240971 -0.1527742409706,0 -0.2922637653351,0.03321179151 -0.1328471660614,0.02656943321 -0.285621407032,0.09299301624 z m 0.2723366904258,2.397891347408 q 0,0.305548481942 0.1594165992737,0.451680364609 0.1594165992737,0.146131882668 0.4516803646088,0.146131882668 0.1793436741829,0 0.3918991398811,-0.04649650812 v -1.109273836612 q -0.1992707490921,-0.05313886643 -0.3918991398811,-0.05313886643 -0.1262048077584,0 -0.2391248989105,0.03321179152 -0.1129200911522,0.02656943321 -0.1992707490921,0.09963537455 -0.079708299637,0.06642358303 -0.1262048077584,0.185986032486 -0.046496508121,0.112920091153 -0.046496508121,0.292263765335 z"
           style="stroke-width:0.2645833194"
           id="path1063" />
        <path
           d="m 37.1701022553444,175.62660020113 q 0.2524096155167,0 0.378614423275,-0.139489524365 0.1328471660614,-0.146131882667 0.1328471660614,-0.378614423275 0,-0.146131882667 -0.053138866425,-0.245767257213 -0.053138866424,-0.106277732849 -0.1394895243644,-0.185986032486 -0.08635065794,-0.07970829964 -0.1992707490921,-0.139489524365 -0.1129200911522,-0.06642358303 -0.2258401823044,-0.139489524364 -0.1129200911522,-0.06642358303 -0.2191978240013,-0.152774240971 -0.1062777328492,-0.09299301624 -0.1926283907891,-0.205913107395 -0.079708299637,-0.119562449455 -0.1328471660614,-0.265694332123 -0.046496508121,-0.15277424097 -0.046496508121,-0.352044990062 0,-0.4317532897 0.2656943321228,-0.697447621823 0.2723366904259,-0.265694332122 0.7306594133377,-0.265694332122 0.1926283907891,0 0.3653297066689,0.05313886642 0.1727013158798,0.04649650812 0.285621407032,0.106277732849 l -0.1262048077583,0.458322722912 q -0.1195624494553,-0.06642358303 -0.2391248989105,-0.09963537455 -0.1195624494553,-0.03321179152 -0.2590519738198,-0.03321179152 -0.2125554656982,0 -0.3387602734565,0.126204807758 -0.1262048077584,0.119562449455 -0.1262048077584,0.352044990063 0,0.132847166061 0.046496508121,0.232482540607 0.046496508122,0.09299301624 0.1195624494553,0.17270131588 0.079708299637,0.07306594133 0.1727013158798,0.139489524364 0.099635374546,0.06642358303 0.2059131073952,0.126204807759 0.1262048077583,0.07306594133 0.2457672572136,0.159416599273 0.1262048077583,0.08635065794 0.2191978240013,0.205913107396 0.099635374546,0.112920091152 0.1594165992736,0.272336690425 0.059781224728,0.152774240971 0.059781224728,0.371972064972 0,0.458322722912 -0.2723366904259,0.737301771641 -0.2656943321228,0.278979048729 -0.7837982797623,0.278979048729 -0.2656943321228,0 -0.478249797821,-0.07306594133 -0.2125554656982,-0.07306594133 -0.3188331985474,-0.132847166061 l 0.1195624494553,-0.471607439518 q 0.099635374546,0.05313886643 0.2656943321228,0.119562449455 0.1727013158798,0.06642358303 0.378614423275,0.06642358303 z"
           style="stroke-width:0.2645833194"
           id="path1065" />
        <path
           d="m 39.3474468207359,174.45754513979 q 0.0066423583,0.252409615516 0.046496508121,0.464965081214 0.039854149818,0.205913107396 0.1262048077584,0.365329706669 0.092993016243,0.152774240971 0.2391248989105,0.239124898911 0.1527742409706,0.08635065794 0.385256781578,0.08635065794 0.1926283907891,0 0.3520449900628,-0.05313886643 0.1660589575767,-0.05978122473 0.2391248989105,-0.09963537455 l 0.1062777328491,0.458322722912 q -0.08635065794,0.05978122473 -0.2922637653351,0.126204807758 -0.1992707490921,0.07306594133 -0.478249797821,0.07306594133 -0.3653297066689,0 -0.6177393221855,-0.132847166061 -0.2457672572136,-0.132847166062 -0.4051838564873,-0.371972064972 -0.1527742409706,-0.239124898911 -0.2191978240013,-0.571242814064 -0.066423583031,-0.332117915154 -0.066423583031,-0.730659413338 0,-0.963141953945 0.3188331985473,-1.408179960251 0.3188331985474,-0.445038006305 0.8435795044899,-0.445038006305 0.5911698889733,0 0.8369371461869,0.445038006305 0.2457672572135,0.445038006306 0.2457672572135,1.248763360977 0,0.07306594133 0,0.152774240971 0,0.07306594133 -0.0066423583,0.152774240971 z m 0.5778851723671,-1.5144576931 q -0.285621407032,0 -0.4184685730934,0.285621407032 -0.1262048077583,0.285621407032 -0.1527742409706,0.763871204853 h 1.0561349701881 q 0,-0.484892156124 -0.099635374546,-0.763871204853 -0.099635374546,-0.285621407032 -0.3852567815781,-0.285621407032 z"
           style="stroke-width:0.2645833194"
           id="path1067" />
      </g>
    </g>
    <g
       id="g976"
       transform="translate(34.5681307977683)">
      <path
         class="anim_b"
         inkscape:connector-curvature="0"
         style="opacity:1;vector-effect:none;fill:none;fill-opacity:1;fill-rule:evenodd;stroke:#724239;stroke-width:2;stroke-linecap:round;stroke-linejoin:round;stroke-miterlimit:4;stroke-dasharray:none;stroke-dashoffset:0;stroke-opacity:1;paint-order:markers stroke fill"
         d="m 85.2182372607918,148.499992370606 a 14.78636805856,14.78636805856 0 0 1 -14.7863680585603,14.78636805856 14.78636805856,14.78636805856 0 0 1 -14.7863680585599,-14.78636805856 14.78636805856,14.78636805856 0 0 1 14.7863680585599,-14.78636805856 14.78636805856,14.78636805856 0 0 1 14.7863680585603,14.78636805856 z"
         id="path820" />
      <g
         aria-label="ease-in"
         style="font-style:normal;font-variant:normal;font-weight:normal;font-stretch:normal;font-size:6.6423583031px;line-height:1.25;font-family:'Ubuntu Condensed';-inkscape-font-specification:'Ubuntu Condensed, ';letter-spacing:0px;word-spacing:0px;fill:#000000;fill-opacity:1;stroke:none;stroke-width:0.2645833194"
         id="text954">
        <path
           d="m 62.7729181265831,174.45754513979 q 0.0066423583,0.252409615516 0.046496508121,0.464965081214 0.039854149818,0.205913107396 0.1262048077583,0.365329706669 0.092993016243,0.152774240971 0.2391248989105,0.239124898911 0.1527742409707,0.08635065794 0.3852567815781,0.08635065794 0.192628390789,0 0.3520449900627,-0.05313886643 0.1660589575768,-0.05978122473 0.2391248989106,-0.09963537455 l 0.1062777328491,0.458322722912 q -0.08635065794,0.05978122473 -0.2922637653351,0.126204807758 -0.1992707490921,0.07306594133 -0.4782497978211,0.07306594133 -0.3653297066688,0 -0.6177393221855,-0.132847166061 -0.2457672572136,-0.132847166062 -0.4051838564873,-0.371972064972 -0.1527742409706,-0.239124898911 -0.2191978240013,-0.571242814064 -0.066423583031,-0.332117915154 -0.066423583031,-0.730659413338 0,-0.963141953945 0.3188331985474,-1.408179960251 0.3188331985474,-0.445038006305 0.8435795044899,-0.445038006305 0.5911698889732,0 0.8369371461868,0.445038006305 0.2457672572136,0.445038006306 0.2457672572136,1.248763360977 0,0.07306594133 0,0.152774240971 0,0.07306594133 -0.0066423583,0.152774240971 z m 0.5778851723671,-1.5144576931 q -0.285621407032,0 -0.4184685730934,0.285621407032 -0.1262048077584,0.285621407032 -0.1527742409706,0.763871204853 h 1.0561349701881 q 0,-0.484892156124 -0.099635374546,-0.763871204853 -0.099635374546,-0.285621407032 -0.3852567815781,-0.285621407032 z"
           style="stroke-width:0.2645833194"
           id="path1046" />
        <path
           d="m 65.3272161531448,172.617611889839 q 0.1727013158799,-0.07306594133 0.3653297066689,-0.112920091152 0.192628390789,-0.04649650812 0.4184685730934,-0.04649650812 0.4649650812149,0 0.75722884655,0.292263765335 0.2922637653351,0.285621407032 0.2922637653351,0.896718370914 v 2.311540689468 q -0.2391248989105,0.06642358303 -0.4915345144272,0.10627773285 -0.2457672572136,0.03985414982 -0.4848921561241,0.03985414982 -0.2391248989105,0 -0.4516803646088,-0.05978122473 -0.2059131073952,-0.05978122473 -0.3653297066688,-0.192628390789 -0.1527742409707,-0.132847166061 -0.2457672572136,-0.332117915153 -0.092993016243,-0.205913107395 -0.092993016243,-0.49817687273 0,-0.272336690426 0.079708299637,-0.471607439518 0.08635065794,-0.205913107396 0.2324825406075,-0.338760273457 0.1461318826675,-0.139489524364 0.3454026317596,-0.205913107395 0.1992707490921,-0.07306594133 0.4317532896996,-0.07306594133 0.2191978240013,0 0.4848921561241,0.05313886643 v -0.318833198548 q 0,-0.385256781578 -0.1527742409706,-0.538031022548 -0.1461318826676,-0.152774240971 -0.4251109313965,-0.152774240971 -0.1527742409706,0 -0.2922637653351,0.03321179151 -0.1328471660614,0.02656943321 -0.285621407032,0.09299301624 z m 0.2723366904259,2.397891347408 q 0,0.305548481942 0.1594165992737,0.451680364609 0.1594165992737,0.146131882668 0.4516803646088,0.146131882668 0.1793436741829,0 0.3918991398811,-0.04649650812 v -1.109273836612 q -0.1992707490921,-0.05313886643 -0.3918991398811,-0.05313886643 -0.1262048077584,0 -0.2391248989106,0.03321179152 -0.1129200911522,0.02656943321 -0.1992707490921,0.09963537455 -0.079708299637,0.06642358303 -0.1262048077583,0.185986032486 -0.046496508121,0.112920091153 -0.046496508121,0.292263765335 z"
           style="stroke-width:0.2645833194"
           id="path1048" />
        <path
           d="m 68.6390544342995,175.62660020113 q 0.2524096155166,0 0.378614423275,-0.139489524365 0.1328471660614,-0.146131882667 0.1328471660614,-0.378614423275 0,-0.146131882667 -0.053138866425,-0.245767257213 -0.053138866425,-0.106277732849 -0.1394895243645,-0.185986032486 -0.08635065794,-0.07970829964 -0.1992707490921,-0.139489524365 -0.1129200911522,-0.06642358303 -0.2258401823043,-0.139489524364 -0.1129200911522,-0.06642358303 -0.2191978240014,-0.152774240971 -0.1062777328491,-0.09299301624 -0.192628390789,-0.205913107395 -0.079708299637,-0.119562449455 -0.1328471660614,-0.265694332123 -0.046496508121,-0.15277424097 -0.046496508121,-0.352044990062 0,-0.4317532897 0.2656943321228,-0.697447621823 0.2723366904259,-0.265694332122 0.7306594133377,-0.265694332122 0.1926283907891,0 0.3653297066689,0.05313886642 0.1727013158798,0.04649650812 0.285621407032,0.106277732849 l -0.1262048077583,0.458322722912 q -0.1195624494553,-0.06642358303 -0.2391248989106,-0.09963537455 -0.1195624494552,-0.03321179152 -0.2590519738197,-0.03321179152 -0.2125554656982,0 -0.3387602734566,0.126204807758 -0.1262048077583,0.119562449455 -0.1262048077583,0.352044990063 0,0.132847166061 0.046496508121,0.232482540607 0.046496508122,0.09299301624 0.1195624494553,0.17270131588 0.079708299637,0.07306594133 0.1727013158798,0.139489524364 0.099635374546,0.06642358303 0.2059131073951,0.126204807759 0.1262048077584,0.07306594133 0.2457672572136,0.159416599273 0.1262048077584,0.08635065794 0.2191978240014,0.205913107396 0.099635374546,0.112920091152 0.1594165992736,0.272336690425 0.059781224728,0.152774240971 0.059781224728,0.371972064972 0,0.458322722912 -0.2723366904259,0.737301771641 -0.2656943321228,0.278979048729 -0.7837982797623,0.278979048729 -0.2656943321228,0 -0.478249797821,-0.07306594133 -0.2125554656983,-0.07306594133 -0.3188331985474,-0.132847166061 l 0.1195624494553,-0.471607439518 q 0.099635374546,0.05313886643 0.2656943321228,0.119562449455 0.1727013158798,0.06642358303 0.378614423275,0.06642358303 z"
           style="stroke-width:0.2645833194"
           id="path1050" />
        <path
           d="m 70.816398999691,174.45754513979 q 0.0066423583,0.252409615516 0.046496508121,0.464965081214 0.039854149818,0.205913107396 0.1262048077583,0.365329706669 0.092993016243,0.152774240971 0.2391248989106,0.239124898911 0.1527742409706,0.08635065794 0.385256781578,0.08635065794 0.1926283907891,0 0.3520449900627,-0.05313886643 0.1660589575768,-0.05978122473 0.2391248989106,-0.09963537455 l 0.1062777328491,0.458322722912 q -0.08635065794,0.05978122473 -0.2922637653351,0.126204807758 -0.1992707490921,0.07306594133 -0.478249797821,0.07306594133 -0.3653297066689,0 -0.6177393221856,-0.132847166061 -0.2457672572136,-0.132847166062 -0.4051838564872,-0.371972064972 -0.1527742409707,-0.239124898911 -0.2191978240014,-0.571242814064 -0.066423583031,-0.332117915154 -0.066423583031,-0.730659413338 0,-0.963141953945 0.3188331985473,-1.408179960251 0.3188331985474,-0.445038006305 0.8435795044899,-0.445038006305 0.5911698889733,0 0.8369371461868,0.445038006305 0.2457672572136,0.445038006306 0.2457672572136,1.248763360977 0,0.07306594133 0,0.152774240971 0,0.07306594133 -0.0066423583,0.152774240971 z m 0.5778851723671,-1.5144576931 q -0.285621407032,0 -0.4184685730934,0.285621407032 -0.1262048077583,0.285621407032 -0.1527742409706,0.763871204853 h 1.0561349701881 q 0,-0.484892156124 -0.099635374546,-0.763871204853 -0.099635374546,-0.285621407032 -0.3852567815781,-0.285621407032 z"
           style="stroke-width:0.2645833194"
           id="path1052" />
        <path
           d="m 72.9588703346253,173.773382234573 h 1.2288362860679 v 0.538031022549 h -1.2288362860679 z"
           style="stroke-width:0.2645833194"
           id="path1054" />
        <path
           d="m 75.4326304149628,176.031784057617 h -0.5712428140641 v -3.487238109112 h 0.5712428140641 z m -0.285621407032,-4.104977431297 q -0.1527742409706,0 -0.2656943321228,-0.09963537455 -0.1062777328492,-0.106277732849 -0.1062777328492,-0.278979048729 0,-0.17270131588 0.1062777328492,-0.272336690426 0.1129200911522,-0.106277732849 0.2656943321228,-0.106277732849 0.1527742409706,0 0.2590519738197,0.106277732849 0.1129200911522,0.09963537455 0.1129200911522,0.272336690426 0,0.17270131588 -0.1129200911522,0.278979048729 -0.1062777328491,0.09963537455 -0.2590519738197,0.09963537455 z"
           style="stroke-width:0.2645833194"
           id="path1056" />
        <path
           d="m 76.4700835847855,172.644181323051 q 0.2457672572136,-0.07306594133 0.5313886642456,-0.119562449455 0.285621407032,-0.05313886642 0.5247463059425,-0.05313886642 0.2590519738197,0 0.471607439518,0.07306594133 0.2125554656982,0.06642358303 0.3586873483658,0.232482540608 0.1527742409706,0.166058957577 0.2324825406074,0.451680364609 0.08635065794,0.278979048729 0.08635065794,0.697447621822 v 2.105627582073 h -0.571242814064 v -2.059131073952 q 0,-0.518103947639 -0.1328471660614,-0.757228846549 -0.1328471660614,-0.239124898911 -0.4981768727303,-0.239124898911 -0.192628390789,0 -0.4317532896995,0.06642358303 v 2.989061236381 h -0.571242814064 z"
           style="stroke-width:0.2645833194"
           id="path1058" />
      </g>
    </g>
    <g
       id="g981"
       transform="translate(34.568142065929)">
      <path
         class="anim_c"
         id="path822"
         d="m 119.78636805856,148.499992370606 a 14.78636805856,14.78636805856 0 0 1 -14.786368058561,14.78636805856 14.78636805856,14.78636805856 0 0 1 -14.7863680585591,-14.78636805856 14.78636805856,14.78636805856 0 0 1 14.7863680585591,-14.78636805856 14.78636805856,14.78636805856 0 0 1 14.786368058561,14.78636805856 z"
         style="opacity:1;vector-effect:none;fill:none;fill-opacity:1;fill-rule:evenodd;stroke:#724239;stroke-width:2;stroke-linecap:round;stroke-linejoin:round;stroke-miterlimit:4;stroke-dasharray:none;stroke-dashoffset:0;stroke-opacity:1;paint-order:markers stroke fill"
         inkscape:connector-curvature="0" />
      <g
         aria-label="ease-out"
         style="font-style:normal;font-variant:normal;font-weight:normal;font-stretch:normal;font-size:6.6423583031px;line-height:1.25;font-family:'Ubuntu Condensed';-inkscape-font-specification:'Ubuntu Condensed, ';letter-spacing:0px;word-spacing:0px;fill:#000000;fill-opacity:1;stroke:none;stroke-width:0.2645833194"
         id="text958">
        <path
           d="m 95.3058389639854,174.45754513979 q 0.0066423583,0.252409615516 0.046496508122,0.464965081214 0.039854149818,0.205913107396 0.1262048077584,0.365329706669 0.092993016243,0.152774240971 0.2391248989105,0.239124898911 0.1527742409706,0.08635065794 0.3852567815781,0.08635065794 0.192628390789,0 0.3520449900627,-0.05313886643 0.1660589575767,-0.05978122473 0.2391248989105,-0.09963537455 l 0.1062777328491,0.458322722912 q -0.08635065794,0.05978122473 -0.2922637653351,0.126204807758 -0.1992707490921,0.07306594133 -0.478249797821,0.07306594133 -0.3653297066689,0 -0.6177393221855,-0.132847166061 -0.2457672572136,-0.132847166062 -0.4051838564873,-0.371972064972 -0.1527742409706,-0.239124898911 -0.2191978240013,-0.571242814064 -0.066423583031,-0.332117915154 -0.066423583031,-0.730659413338 0,-0.963141953945 0.3188331985474,-1.408179960251 0.3188331985473,-0.445038006305 0.8435795044898,-0.445038006305 0.5911698889733,0 0.8369371461869,0.445038006305 0.2457672572136,0.445038006306 0.2457672572136,1.248763360977 0,0.07306594133 0,0.152774240971 0,0.07306594133 -0.0066423583,0.152774240971 z m 0.5778851723671,-1.5144576931 q -0.285621407032,0 -0.4184685730934,0.285621407032 -0.1262048077583,0.285621407032 -0.1527742409706,0.763871204853 h 1.0561349701882 q 0,-0.484892156124 -0.099635374546,-0.763871204853 -0.099635374546,-0.285621407032 -0.3852567815781,-0.285621407032 z"
           style="stroke-width:0.2645833194"
           id="path1029" />
        <path
           d="m 97.8601369905472,172.617611889839 q 0.1727013158798,-0.07306594133 0.3653297066688,-0.112920091152 0.1926283907891,-0.04649650812 0.4184685730934,-0.04649650812 0.464965081215,0 0.75722884655,0.292263765335 0.2922637653351,0.285621407032 0.2922637653351,0.896718370914 v 2.311540689468 q -0.2391248989105,0.06642358303 -0.4915345144272,0.10627773285 -0.2457672572136,0.03985414982 -0.4848921561241,0.03985414982 -0.2391248989105,0 -0.4516803646087,-0.05978122473 -0.2059131073952,-0.05978122473 -0.3653297066689,-0.192628390789 -0.1527742409706,-0.132847166061 -0.2457672572136,-0.332117915153 -0.092993016243,-0.205913107395 -0.092993016243,-0.49817687273 0,-0.272336690426 0.079708299637,-0.471607439518 0.08635065794,-0.205913107396 0.2324825406074,-0.338760273457 0.1461318826676,-0.139489524364 0.3454026317597,-0.205913107395 0.1992707490921,-0.07306594133 0.4317532896995,-0.07306594133 0.2191978240013,0 0.4848921561241,0.05313886643 v -0.318833198548 q 0,-0.385256781578 -0.1527742409706,-0.538031022548 -0.1461318826675,-0.152774240971 -0.4251109313965,-0.152774240971 -0.1527742409706,0 -0.292263765335,0.03321179151 -0.1328471660614,0.02656943321 -0.2856214070321,0.09299301624 z m 0.2723366904259,2.397891347408 q 0,0.305548481942 0.1594165992736,0.451680364609 0.1594165992737,0.146131882668 0.4516803646088,0.146131882668 0.1793436741829,0 0.3918991398811,-0.04649650812 v -1.109273836612 q -0.1992707490921,-0.05313886643 -0.3918991398811,-0.05313886643 -0.1262048077583,0 -0.2391248989105,0.03321179152 -0.1129200911522,0.02656943321 -0.1992707490921,0.09963537455 -0.079708299637,0.06642358303 -0.1262048077584,0.185986032486 -0.046496508121,0.112920091153 -0.046496508121,0.292263765335 z"
           style="stroke-width:0.2645833194"
           id="path1031" />
        <path
           d="m 101.171975271702,175.62660020113 q 0.252409615516,0 0.378614423275,-0.139489524365 0.132847166061,-0.146131882667 0.132847166061,-0.378614423275 0,-0.146131882667 -0.05313886642,-0.245767257213 -0.05313886643,-0.106277732849 -0.139489524365,-0.185986032486 -0.08635065794,-0.07970829964 -0.199270749092,-0.139489524365 -0.112920091152,-0.06642358303 -0.225840182304,-0.139489524364 -0.112920091153,-0.06642358303 -0.219197824002,-0.152774240971 -0.106277732849,-0.09299301624 -0.192628390789,-0.205913107395 -0.07970829964,-0.119562449455 -0.132847166061,-0.265694332123 -0.04649650812,-0.15277424097 -0.04649650812,-0.352044990062 0,-0.4317532897 0.265694332123,-0.697447621823 0.272336690426,-0.265694332122 0.730659413338,-0.265694332122 0.192628390789,0 0.365329706669,0.05313886642 0.17270131588,0.04649650812 0.285621407032,0.106277732849 l -0.126204807759,0.458322722912 q -0.119562449455,-0.06642358303 -0.23912489891,-0.09963537455 -0.119562449455,-0.03321179152 -0.25905197382,-0.03321179152 -0.212555465698,0 -0.338760273456,0.126204807758 -0.126204807759,0.119562449455 -0.126204807759,0.352044990063 0,0.132847166061 0.04649650812,0.232482540607 0.04649650812,0.09299301624 0.119562449455,0.17270131588 0.07970829964,0.07306594133 0.17270131588,0.139489524364 0.09963537455,0.06642358303 0.205913107395,0.126204807759 0.126204807758,0.07306594133 0.245767257214,0.159416599273 0.126204807758,0.08635065794 0.219197824001,0.205913107396 0.09963537455,0.112920091152 0.159416599274,0.272336690425 0.05978122473,0.152774240971 0.05978122473,0.371972064972 0,0.458322722912 -0.272336690426,0.737301771641 -0.265694332122,0.278979048729 -0.783798279762,0.278979048729 -0.265694332123,0 -0.478249797821,-0.07306594133 -0.212555465698,-0.07306594133 -0.318833198547,-0.132847166061 l 0.119562449455,-0.471607439518 q 0.09963537455,0.05313886643 0.265694332123,0.119562449455 0.17270131588,0.06642358303 0.378614423275,0.06642358303 z"
           style="stroke-width:0.2645833194"
           id="path1033" />
        <path
           d="m 103.349319837093,174.45754513979 q 0.0066423583,0.252409615516 0.04649650812,0.464965081214 0.03985414982,0.205913107396 0.126204807758,0.365329706669 0.09299301624,0.152774240971 0.239124898911,0.239124898911 0.15277424097,0.08635065794 0.385256781578,0.08635065794 0.192628390789,0 0.352044990062,-0.05313886643 0.166058957577,-0.05978122473 0.239124898911,-0.09963537455 l 0.106277732849,0.458322722912 q -0.08635065794,0.05978122473 -0.292263765335,0.126204807758 -0.199270749092,0.07306594133 -0.478249797821,0.07306594133 -0.365329706669,0 -0.617739322186,-0.132847166061 -0.245767257213,-0.132847166062 -0.405183856487,-0.371972064972 -0.15277424097,-0.239124898911 -0.219197824001,-0.571242814064 -0.06642358303,-0.332117915154 -0.06642358303,-0.730659413338 0,-0.963141953945 0.318833198548,-1.408179960251 0.318833198547,-0.445038006305 0.843579504489,-0.445038006305 0.591169888974,0 0.836937146187,0.445038006305 0.245767257214,0.445038006306 0.245767257214,1.248763360977 0,0.07306594133 0,0.152774240971 0,0.07306594133 -0.0066423583,0.152774240971 z m 0.577885172367,-1.5144576931 q -0.285621407032,0 -0.418468573093,0.285621407032 -0.126204807758,0.285621407032 -0.152774240971,0.763871204853 h 1.056134970189 q 0,-0.484892156124 -0.09963537455,-0.763871204853 -0.09963537455,-0.285621407032 -0.385256781579,-0.285621407032 z"
           style="stroke-width:0.2645833194"
           id="path1035" />
        <path
           d="m 105.491791172028,173.773382234573 h 1.228836286068 v 0.538031022549 h -1.228836286068 z"
           style="stroke-width:0.2645833194"
           id="path1037" />
        <path
           d="m 109.736569654942,174.291486182213 q 0,0.41182621479 -0.07306594133,0.750586488247 -0.07306594133,0.332117915153 -0.225840182305,0.571242814064 -0.146131882667,0.23912489891 -0.378614423275,0.371972064972 -0.225840182304,0.132847166061 -0.538031022548,0.132847166061 -0.312190840245,0 -0.544673380852,-0.132847166061 -0.232482540607,-0.132847166062 -0.385256781578,-0.371972064972 -0.146131882668,-0.239124898911 -0.219197824001,-0.571242814064 -0.07306594133,-0.338760273457 -0.07306594133,-0.750586488247 0,-0.405183856487 0.07306594133,-0.743944129944 0.07306594133,-0.338760273457 0.219197824001,-0.577885172367 0.152774240971,-0.245767257214 0.385256781578,-0.378614423275 0.232482540607,-0.132847166061 0.544673380852,-0.132847166061 0.312190840244,0 0.538031022548,0.132847166061 0.232482540608,0.132847166061 0.378614423275,0.378614423275 0.152774240971,0.23912489891 0.225840182305,0.577885172367 0.07306594133,0.338760273457 0.07306594133,0.743944129944 z m -0.597812247277,0 q 0,-0.292263765335 -0.03321179152,-0.531388664246 -0.03321179152,-0.245767257213 -0.106277732849,-0.418468573093 -0.07306594133,-0.179343674183 -0.192628390789,-0.272336690426 -0.119562449456,-0.09963537455 -0.285621407032,-0.09963537455 -0.17270131588,0 -0.292263765335,0.09963537455 -0.112920091153,0.09299301624 -0.192628390789,0.272336690426 -0.07306594133,0.17270131588 -0.10627773285,0.418468573093 -0.03321179152,0.239124898911 -0.03321179152,0.531388664246 0,0.292263765335 0.03321179152,0.538031022549 0.03321179152,0.23912489891 0.10627773285,0.41182621479 0.07970829964,0.17270131588 0.192628390789,0.272336690426 0.119562449455,0.09299301624 0.292263765335,0.09299301624 0.166058957576,0 0.285621407032,-0.09299301624 0.119562449455,-0.09963537455 0.192628390789,-0.272336690426 0.07306594133,-0.17270131588 0.106277732849,-0.41182621479 0.03321179152,-0.245767257214 0.03321179152,-0.538031022549 z"
           style="stroke-width:0.2645833194"
           id="path1039" />
        <path
           d="m 112.731546452045,175.932148683071 q -0.08635065794,0.03321179151 -0.212555465698,0.06642358303 -0.119562449455,0.02656943321 -0.25905197382,0.04649650812 -0.132847166061,0.02656943321 -0.272336690425,0.03985414982 -0.132847166062,0.01992707491 -0.245767257214,0.01992707491 -0.272336690426,0 -0.49817687273,-0.06642358303 -0.225840182305,-0.05978122473 -0.385256781578,-0.219197824001 -0.159416599274,-0.159416599274 -0.245767257214,-0.4317532897 -0.08635065794,-0.278979048729 -0.08635065794,-0.697447621822 v -2.145481731892 h 0.571242814064 v 2.125554656983 q 0,0.511461589336 0.152774240971,0.724017055034 0.159416599273,0.205913107396 0.478249797821,0.205913107396 0.106277732849,0 0.212555465698,-0.0066423583 0.106277732849,-0.01328471661 0.219197824001,-0.04649650812 v -3.002345952988 h 0.571242814064 z"
           style="stroke-width:0.2645833194"
           id="path1041" />
        <path
           d="m 114.295614972115,172.544545948505 h 0.876791296005 v 0.491534514428 h -0.876791296005 v 1.919641549587 q 0,0.358687348366 0.126204807758,0.504819231033 0.132847166061,0.139489524365 0.352044990063,0.139489524365 0.112920091152,0 0.212555465698,-0.03321179152 0.106277732849,-0.03321179152 0.179343674183,-0.07970829964 l 0.112920091152,0.458322722912 q -0.272336690426,0.159416599274 -0.577885172367,0.159416599274 -0.491534514427,0 -0.737301771641,-0.272336690426 -0.23912489891,-0.278979048729 -0.23912489891,-0.916645445824 v -3.307894434928 l 0.571242814064,-0.09963537455 z"
           style="stroke-width:0.2645833194"
           id="path1043" />
      </g>
    </g>
    <g
       id="g971"
       transform="translate(-69.1362728636973)">
      <path
         class="anim_d"
         inkscape:connector-curvature="0"
         style="opacity:1;vector-effect:none;fill:none;fill-opacity:1;fill-rule:evenodd;stroke:#724239;stroke-width:2;stroke-linecap:round;stroke-linejoin:round;stroke-miterlimit:4;stroke-dasharray:none;stroke-dashoffset:0;stroke-opacity:1;paint-order:markers stroke fill"
         d="m 154.354510124489,148.499992370606 a 14.78636805856,14.78636805856 0 0 1 -14.786368058561,14.78636805856 14.78636805856,14.78636805856 0 0 1 -14.786368058559,-14.78636805856 14.78636805856,14.78636805856 0 0 1 14.786368058559,-14.78636805856 14.78636805856,14.78636805856 0 0 1 14.786368058561,14.78636805856 z"
         id="path824" />
      <g
         aria-label="ease-in-out"
         style="font-style:normal;font-variant:normal;font-weight:normal;font-stretch:normal;font-size:6.6423583031px;line-height:1.25;font-family:'Ubuntu Condensed';-inkscape-font-specification:'Ubuntu Condensed, ';letter-spacing:0px;word-spacing:0px;fill:#000000;fill-opacity:1;stroke:none;stroke-width:0.2645833194"
         id="text962">
        <path
           d="m 126.695510289669,174.45754513979 q 0.0066423583,0.252409615516 0.04649650812,0.464965081214 0.03985414982,0.205913107396 0.126204807758,0.365329706669 0.09299301624,0.152774240971 0.23912489891,0.239124898911 0.152774240971,0.08635065794 0.385256781578,0.08635065794 0.192628390789,0 0.352044990063,-0.05313886643 0.166058957577,-0.05978122473 0.239124898911,-0.09963537455 l 0.106277732849,0.458322722912 q -0.08635065794,0.05978122473 -0.292263765335,0.126204807758 -0.199270749092,0.07306594133 -0.478249797821,0.07306594133 -0.365329706669,0 -0.617739322186,-0.132847166061 -0.245767257213,-0.132847166062 -0.405183856487,-0.371972064972 -0.152774240971,-0.239124898911 -0.219197824001,-0.571242814064 -0.06642358303,-0.332117915154 -0.06642358303,-0.730659413338 0,-0.963141953945 0.318833198547,-1.408179960251 0.318833198548,-0.445038006305 0.84357950449,-0.445038006305 0.591169888973,0 0.836937146187,0.445038006305 0.245767257214,0.445038006306 0.245767257214,1.248763360977 0,0.07306594133 0,0.152774240971 0,0.07306594133 -0.0066423583,0.152774240971 z m 0.577885172367,-1.5144576931 q -0.285621407032,0 -0.418468573093,0.285621407032 -0.126204807759,0.285621407032 -0.152774240971,0.763871204853 h 1.056134970188 q 0,-0.484892156124 -0.09963537455,-0.763871204853 -0.09963537455,-0.285621407032 -0.385256781578,-0.285621407032 z"
           style="stroke-width:0.2645833194"
           id="path1006" />
        <path
           d="m 129.249808316231,172.617611889839 q 0.17270131588,-0.07306594133 0.365329706669,-0.112920091152 0.192628390789,-0.04649650812 0.418468573093,-0.04649650812 0.464965081215,0 0.75722884655,0.292263765335 0.292263765335,0.285621407032 0.292263765335,0.896718370914 v 2.311540689468 q -0.23912489891,0.06642358303 -0.491534514427,0.10627773285 -0.245767257214,0.03985414982 -0.484892156124,0.03985414982 -0.239124898911,0 -0.451680364609,-0.05978122473 -0.205913107395,-0.05978122473 -0.365329706669,-0.192628390789 -0.15277424097,-0.132847166061 -0.245767257213,-0.332117915153 -0.09299301624,-0.205913107395 -0.09299301624,-0.49817687273 0,-0.272336690426 0.07970829964,-0.471607439518 0.08635065794,-0.205913107396 0.232482540608,-0.338760273457 0.146131882667,-0.139489524364 0.34540263176,-0.205913107395 0.199270749092,-0.07306594133 0.431753289699,-0.07306594133 0.219197824001,0 0.484892156124,0.05313886643 v -0.318833198548 q 0,-0.385256781578 -0.15277424097,-0.538031022548 -0.146131882668,-0.152774240971 -0.425110931397,-0.152774240971 -0.15277424097,0 -0.292263765335,0.03321179151 -0.132847166061,0.02656943321 -0.285621407032,0.09299301624 z m 0.272336690426,2.397891347408 q 0,0.305548481942 0.159416599273,0.451680364609 0.159416599274,0.146131882668 0.451680364609,0.146131882668 0.179343674183,0 0.391899139881,-0.04649650812 v -1.109273836612 q -0.199270749092,-0.05313886643 -0.391899139881,-0.05313886643 -0.126204807758,0 -0.23912489891,0.03321179152 -0.112920091153,0.02656943321 -0.199270749093,0.09963537455 -0.07970829964,0.06642358303 -0.126204807758,0.185986032486 -0.04649650812,0.112920091153 -0.04649650812,0.292263765335 z"
           style="stroke-width:0.2645833194"
           id="path1008" />
        <path
           d="m 132.561646597385,175.62660020113 q 0.252409615517,0 0.378614423275,-0.139489524365 0.132847166062,-0.146131882667 0.132847166062,-0.378614423275 0,-0.146131882667 -0.05313886643,-0.245767257213 -0.05313886642,-0.106277732849 -0.139489524364,-0.185986032486 -0.08635065794,-0.07970829964 -0.199270749092,-0.139489524365 -0.112920091153,-0.06642358303 -0.225840182305,-0.139489524364 -0.112920091152,-0.06642358303 -0.219197824001,-0.152774240971 -0.106277732849,-0.09299301624 -0.192628390789,-0.205913107395 -0.07970829964,-0.119562449455 -0.132847166061,-0.265694332123 -0.04649650812,-0.15277424097 -0.04649650812,-0.352044990062 0,-0.4317532897 0.265694332123,-0.697447621823 0.272336690426,-0.265694332122 0.730659413338,-0.265694332122 0.192628390789,0 0.365329706668,0.05313886642 0.17270131588,0.04649650812 0.285621407032,0.106277732849 l -0.126204807758,0.458322722912 q -0.119562449455,-0.06642358303 -0.23912489891,-0.09963537455 -0.119562449456,-0.03321179152 -0.25905197382,-0.03321179152 -0.212555465698,0 -0.338760273457,0.126204807758 -0.126204807758,0.119562449455 -0.126204807758,0.352044990063 0,0.132847166061 0.04649650812,0.232482540607 0.04649650812,0.09299301624 0.119562449456,0.17270131588 0.07970829964,0.07306594133 0.17270131588,0.139489524364 0.09963537455,0.06642358303 0.205913107395,0.126204807759 0.126204807758,0.07306594133 0.245767257213,0.159416599273 0.126204807759,0.08635065794 0.219197824002,0.205913107396 0.09963537455,0.112920091152 0.159416599273,0.272336690425 0.05978122473,0.152774240971 0.05978122473,0.371972064972 0,0.458322722912 -0.272336690426,0.737301771641 -0.265694332123,0.278979048729 -0.783798279762,0.278979048729 -0.265694332123,0 -0.478249797821,-0.07306594133 -0.212555465699,-0.07306594133 -0.318833198548,-0.132847166061 l 0.119562449456,-0.471607439518 q 0.09963537455,0.05313886643 0.265694332122,0.119562449455 0.17270131588,0.06642358303 0.378614423275,0.06642358303 z"
           style="stroke-width:0.2645833194"
           id="path1010" />
        <path
           d="m 134.738991162777,174.45754513979 q 0.0066423583,0.252409615516 0.04649650812,0.464965081214 0.03985414982,0.205913107396 0.126204807759,0.365329706669 0.09299301624,0.152774240971 0.23912489891,0.239124898911 0.152774240971,0.08635065794 0.385256781578,0.08635065794 0.192628390789,0 0.352044990063,-0.05313886643 0.166058957577,-0.05978122473 0.239124898911,-0.09963537455 l 0.106277732849,0.458322722912 q -0.08635065794,0.05978122473 -0.292263765335,0.126204807758 -0.199270749092,0.07306594133 -0.478249797821,0.07306594133 -0.365329706669,0 -0.617739322186,-0.132847166061 -0.245767257214,-0.132847166062 -0.405183856487,-0.371972064972 -0.152774240971,-0.239124898911 -0.219197824002,-0.571242814064 -0.06642358303,-0.332117915154 -0.06642358303,-0.730659413338 0,-0.963141953945 0.318833198547,-1.408179960251 0.318833198548,-0.445038006305 0.84357950449,-0.445038006305 0.591169888973,0 0.836937146187,0.445038006305 0.245767257213,0.445038006306 0.245767257213,1.248763360977 0,0.07306594133 0,0.152774240971 0,0.07306594133 -0.0066423583,0.152774240971 z m 0.577885172367,-1.5144576931 q -0.285621407032,0 -0.418468573093,0.285621407032 -0.126204807759,0.285621407032 -0.152774240971,0.763871204853 h 1.056134970188 q 0,-0.484892156124 -0.09963537455,-0.763871204853 -0.09963537455,-0.285621407032 -0.385256781578,-0.285621407032 z"
           style="stroke-width:0.2645833194"
           id="path1012" />
        <path
           d="m 136.881462497711,173.773382234573 h 1.228836286068 v 0.538031022549 h -1.228836286068 z"
           style="stroke-width:0.2645833194"
           id="path1014" />
        <path
           d="m 139.355222578049,176.031784057617 h -0.571242814064 v -3.487238109112 h 0.571242814064 z m -0.285621407032,-4.104977431297 q -0.152774240971,0 -0.265694332123,-0.09963537455 -0.106277732849,-0.106277732849 -0.106277732849,-0.278979048729 0,-0.17270131588 0.106277732849,-0.272336690426 0.112920091152,-0.106277732849 0.265694332123,-0.106277732849 0.15277424097,0 0.259051973819,0.106277732849 0.112920091153,0.09963537455 0.112920091153,0.272336690426 0,0.17270131588 -0.112920091153,0.278979048729 -0.106277732849,0.09963537455 -0.259051973819,0.09963537455 z"
           style="stroke-width:0.2645833194"
           id="path1016" />
        <path
           d="m 140.392675747871,172.644181323051 q 0.245767257214,-0.07306594133 0.531388664246,-0.119562449455 0.285621407032,-0.05313886642 0.524746305943,-0.05313886642 0.259051973819,0 0.471607439518,0.07306594133 0.212555465698,0.06642358303 0.358687348365,0.232482540608 0.152774240971,0.166058957577 0.232482540608,0.451680364609 0.08635065794,0.278979048729 0.08635065794,0.697447621822 v 2.105627582073 h -0.571242814064 v -2.059131073952 q 0,-0.518103947639 -0.132847166062,-0.757228846549 -0.132847166061,-0.239124898911 -0.49817687273,-0.239124898911 -0.192628390789,0 -0.4317532897,0.06642358303 v 2.989061236381 h -0.571242814064 z"
           style="stroke-width:0.2645833194"
           id="path1018" />
        <path
           d="m 143.238407535553,173.773382234573 h 1.228836286068 v 0.538031022549 h -1.228836286068 z"
           style="stroke-width:0.2645833194"
           id="path1020" />
        <path
           d="m 147.483185064793,174.291486182213 q 0,0.41182621479 -0.07306594133,0.750586488247 -0.07306594133,0.332117915153 -0.225840182305,0.571242814064 -0.146131882667,0.23912489891 -0.378614423275,0.371972064972 -0.225840182304,0.132847166061 -0.538031022548,0.132847166061 -0.312190840244,0 -0.544673380852,-0.132847166061 -0.232482540607,-0.132847166062 -0.385256781578,-0.371972064972 -0.146131882668,-0.239124898911 -0.219197824001,-0.571242814064 -0.07306594133,-0.338760273457 -0.07306594133,-0.750586488247 0,-0.405183856487 0.07306594133,-0.743944129944 0.07306594133,-0.338760273457 0.219197824001,-0.577885172367 0.152774240971,-0.245767257214 0.385256781578,-0.378614423275 0.232482540608,-0.132847166061 0.544673380852,-0.132847166061 0.312190840244,0 0.538031022548,0.132847166061 0.232482540608,0.132847166061 0.378614423275,0.378614423275 0.152774240971,0.23912489891 0.225840182305,0.577885172367 0.07306594133,0.338760273457 0.07306594133,0.743944129944 z m -0.597812247277,0 q 0,-0.292263765335 -0.03321179151,-0.531388664246 -0.03321179151,-0.245767257213 -0.106277732849,-0.418468573093 -0.07306594133,-0.179343674183 -0.192628390789,-0.272336690426 -0.119562449455,-0.09963537455 -0.285621407032,-0.09963537455 -0.17270131588,0 -0.292263765335,0.09963537455 -0.112920091152,0.09299301624 -0.192628390789,0.272336690426 -0.07306594133,0.17270131588 -0.106277732849,0.418468573093 -0.03321179152,0.239124898911 -0.03321179152,0.531388664246 0,0.292263765335 0.03321179152,0.538031022549 0.03321179152,0.23912489891 0.106277732849,0.41182621479 0.07970829964,0.17270131588 0.192628390789,0.272336690426 0.119562449455,0.09299301624 0.292263765335,0.09299301624 0.166058957577,0 0.285621407032,-0.09299301624 0.119562449455,-0.09963537455 0.192628390789,-0.272336690426 0.07306594133,-0.17270131588 0.106277732849,-0.41182621479 0.03321179151,-0.245767257214 0.03321179151,-0.538031022549 z"
           style="stroke-width:0.2645833194"
           id="path1022" />
        <path
           d="m 150.478162815571,175.932148683071 q -0.08635065794,0.03321179151 -0.212555465698,0.06642358303 -0.119562449456,0.02656943321 -0.25905197382,0.04649650812 -0.132847166062,0.02656943321 -0.272336690426,0.03985414982 -0.132847166061,0.01992707491 -0.245767257214,0.01992707491 -0.272336690425,0 -0.49817687273,-0.06642358303 -0.225840182304,-0.05978122473 -0.385256781578,-0.219197824001 -0.159416599274,-0.159416599274 -0.245767257214,-0.4317532897 -0.08635065794,-0.278979048729 -0.08635065794,-0.697447621822 v -2.145481731892 h 0.571242814064 v 2.125554656983 q 0,0.511461589336 0.15277424097,0.724017055034 0.159416599274,0.205913107396 0.478249797821,0.205913107396 0.106277732849,0 0.212555465699,-0.0066423583 0.106277732849,-0.01328471661 0.219197824001,-0.04649650812 v -3.002345952988 h 0.571242814064 z"
           style="stroke-width:0.2645833194"
           id="path1024" />
        <path
           d="m 152.042229428291,172.544545948505 h 0.876791296006 v 0.491534514428 h -0.876791296006 v 1.919641549587 q 0,0.358687348366 0.126204807759,0.504819231033 0.132847166061,0.139489524365 0.352044990062,0.139489524365 0.112920091153,0 0.212555465699,-0.03321179152 0.106277732849,-0.03321179152 0.179343674183,-0.07970829964 l 0.112920091152,0.458322722912 q -0.272336690426,0.159416599274 -0.577885172367,0.159416599274 -0.491534514428,0 -0.737301771641,-0.272336690426 -0.239124898911,-0.278979048729 -0.239124898911,-0.916645445824 v -3.307894434928 l 0.571242814064,-0.09963537455 z"
           style="stroke-width:0.2645833194"
           id="path1026" />
      </g>
    </g>
    <g
       id="g991">
      <path
         class="anim_e"
         id="path826"
         d="m 188.922631160807,148.499992370606 a 14.78636805856,14.78636805856 0 0 1 -14.78636805856,14.78636805856 14.78636805856,14.78636805856 0 0 1 -14.78636805856,-14.78636805856 14.78636805856,14.78636805856 0 0 1 14.78636805856,-14.78636805856 14.78636805856,14.78636805856 0 0 1 14.78636805856,14.78636805856 z"
         style="opacity:1;vector-effect:none;fill:none;fill-opacity:1;fill-rule:evenodd;stroke:#724239;stroke-width:2;stroke-linecap:round;stroke-linejoin:round;stroke-miterlimit:4;stroke-dasharray:none;stroke-dashoffset:0;stroke-opacity:1;paint-order:markers stroke fill"
         inkscape:connector-curvature="0" />
      <g
         aria-label="linear"
         style="font-style:normal;font-variant:normal;font-weight:normal;font-stretch:normal;font-size:6.6423583031px;line-height:1.25;font-family:'Ubuntu Condensed';-inkscape-font-specification:'Ubuntu Condensed, ';letter-spacing:0px;word-spacing:0px;fill:#000000;fill-opacity:1;stroke:none;stroke-width:0.2645833194"
         id="text966">
        <path
           d="m 168.145066971779,176.098207640648 q -0.491534514427,-0.01328471661 -0.704089980126,-0.239124898911 -0.212555465698,-0.232482540607 -0.212555465698,-0.730659413337 v -4.151473939419 l 0.571242814064,-0.09963537455 v 4.264394030571 q 0,0.232482540607 0.09299301624,0.338760273456 0.09299301624,0.09963537455 0.325475556851,0.139489524365 z"
           style="stroke-width:0.2645833194"
           id="path993" />
        <path
           d="m 169.421645159721,176.031784057617 h -0.571242814064 v -3.487238109112 h 0.571242814064 z m -0.285621407032,-4.104977431297 q -0.15277424097,0 -0.265694332122,-0.09963537455 -0.10627773285,-0.106277732849 -0.10627773285,-0.278979048729 0,-0.17270131588 0.10627773285,-0.272336690426 0.112920091152,-0.106277732849 0.265694332122,-0.106277732849 0.152774240971,0 0.25905197382,0.106277732849 0.112920091152,0.09963537455 0.112920091152,0.272336690426 0,0.17270131588 -0.112920091152,0.278979048729 -0.106277732849,0.09963537455 -0.25905197382,0.09963537455 z"
           style="stroke-width:0.2645833194"
           id="path995" />
        <path
           d="m 170.459098448753,172.644181323051 q 0.245767257214,-0.07306594133 0.531388664246,-0.119562449455 0.285621407032,-0.05313886642 0.524746305943,-0.05313886642 0.259051973819,0 0.471607439517,0.07306594133 0.212555465699,0.06642358303 0.358687348366,0.232482540608 0.152774240971,0.166058957577 0.232482540608,0.451680364609 0.08635065794,0.278979048729 0.08635065794,0.697447621822 v 2.105627582073 h -0.571242814064 v -2.059131073952 q 0,-0.518103947639 -0.132847166062,-0.757228846549 -0.132847166061,-0.239124898911 -0.49817687273,-0.239124898911 -0.192628390789,0 -0.4317532897,0.06642358303 v 2.989061236381 h -0.571242814064 z"
           style="stroke-width:0.2645833194"
           id="path997" />
        <path
           d="m 174.055416486263,174.45754513979 q 0.0066423583,0.252409615516 0.04649650812,0.464965081214 0.03985414982,0.205913107396 0.126204807758,0.365329706669 0.09299301624,0.152774240971 0.239124898911,0.239124898911 0.15277424097,0.08635065794 0.385256781578,0.08635065794 0.192628390789,0 0.352044990062,-0.05313886643 0.166058957577,-0.05978122473 0.239124898911,-0.09963537455 l 0.106277732849,0.458322722912 q -0.08635065794,0.05978122473 -0.292263765335,0.126204807758 -0.199270749092,0.07306594133 -0.478249797821,0.07306594133 -0.365329706669,0 -0.617739322186,-0.132847166061 -0.245767257213,-0.132847166062 -0.405183856487,-0.371972064972 -0.15277424097,-0.239124898911 -0.219197824001,-0.571242814064 -0.06642358303,-0.332117915154 -0.06642358303,-0.730659413338 0,-0.963141953945 0.318833198547,-1.408179960251 0.318833198548,-0.445038006305 0.84357950449,-0.445038006305 0.591169888974,0 0.836937146187,0.445038006305 0.245767257214,0.445038006306 0.245767257214,1.248763360977 0,0.07306594133 0,0.152774240971 0,0.07306594133 -0.0066423583,0.152774240971 z m 0.577885172367,-1.5144576931 q -0.285621407032,0 -0.418468573093,0.285621407032 -0.126204807758,0.285621407032 -0.152774240971,0.763871204853 h 1.056134970188 q 0,-0.484892156124 -0.09963537455,-0.763871204853 -0.09963537455,-0.285621407032 -0.385256781578,-0.285621407032 z"
           style="stroke-width:0.2645833194"
           id="path999" />
        <path
           d="m 176.609714035988,172.617611889839 q 0.17270131588,-0.07306594133 0.365329706669,-0.112920091152 0.192628390789,-0.04649650812 0.418468573093,-0.04649650812 0.464965081215,0 0.75722884655,0.292263765335 0.292263765335,0.285621407032 0.292263765335,0.896718370914 v 2.311540689468 q -0.23912489891,0.06642358303 -0.491534514427,0.10627773285 -0.245767257214,0.03985414982 -0.484892156124,0.03985414982 -0.239124898911,0 -0.451680364609,-0.05978122473 -0.205913107395,-0.05978122473 -0.365329706669,-0.192628390789 -0.15277424097,-0.132847166061 -0.245767257213,-0.332117915153 -0.09299301624,-0.205913107395 -0.09299301624,-0.49817687273 0,-0.272336690426 0.07970829964,-0.471607439518 0.08635065794,-0.205913107396 0.232482540607,-0.338760273457 0.146131882668,-0.139489524364 0.34540263176,-0.205913107395 0.199270749092,-0.07306594133 0.431753289699,-0.07306594133 0.219197824002,0 0.484892156124,0.05313886643 v -0.318833198548 q 0,-0.385256781578 -0.15277424097,-0.538031022548 -0.146131882668,-0.152774240971 -0.425110931397,-0.152774240971 -0.15277424097,0 -0.292263765335,0.03321179151 -0.132847166061,0.02656943321 -0.285621407032,0.09299301624 z m 0.272336690426,2.397891347408 q 0,0.305548481942 0.159416599273,0.451680364609 0.159416599274,0.146131882668 0.451680364609,0.146131882668 0.179343674183,0 0.391899139881,-0.04649650812 v -1.109273836612 q -0.199270749092,-0.05313886643 -0.391899139881,-0.05313886643 -0.126204807758,0 -0.23912489891,0.03321179152 -0.112920091153,0.02656943321 -0.199270749092,0.09963537455 -0.07970829964,0.06642358303 -0.126204807759,0.185986032486 -0.04649650812,0.112920091153 -0.04649650812,0.292263765335 z"
           style="stroke-width:0.2645833194"
           id="path1001" />
        <path
           d="m 180.944475495815,173.062649896145 q -0.212555465698,-0.09299301624 -0.478249797821,-0.09299301624 -0.245767257213,0 -0.458322722912,0.08635065794 v 2.975776519775 h -0.571242814064 v -3.334463868141 q 0.192628390789,-0.09299301624 0.438395648003,-0.152774240971 0.252409615517,-0.06642358303 0.551315739155,-0.06642358303 0.159416599274,0 0.318833198547,0.01992707491 0.159416599274,0.01992707491 0.298906123638,0.07306594133 z"
           style="stroke-width:0.2645833194"
           id="path1003" />
      </g>
    </g>
  </g>
  <style
     id="anim_a">
        .anim_a {
          animation-duration: 3.0s;
          animation-timing-function: ease;
          animation-delay: 0.0s;
          animation-iteration-count: infinite;
          animation-fill-mode: forwards;
          }
</style>
  <style
     id="pathanim_path815">
        #path815 {
          animation-name: path815;
          stroke-dasharray: 92.912168053 !important;
        }

        @keyframes path815 {
          0%, 0% {stroke-dashoffset: 92.912168053;}
          100.0%, 100% {stroke-dashoffset: 0;}
        }
</style>
  <style
     id="anim_b">
        .anim_b {
          animation-duration: 3.0s;
          animation-timing-function: ease-in;
          animation-delay: 0.0s;
          animation-iteration-count: infinite;
          animation-fill-mode: forwards;
          }
</style>
  <style
     id="pathanim_path820">
        #path820 {
          animation-name: path820;
          stroke-dasharray: 92.912168053 !important;
        }

        @keyframes path820 {
          0%, 0% {stroke-dashoffset: 92.912168053;}
          100.0%, 100% {stroke-dashoffset: 0;}
        }
</style>
  <style
     id="anim_c">
        .anim_c {
          animation-duration: 3.0s;
          animation-timing-function: ease-out;
          animation-delay: 0.0s;
          animation-iteration-count: infinite;
          animation-fill-mode: forwards;
          }
</style>
  <style
     id="pathanim_path822">
        #path822 {
          animation-name: path822;
          stroke-dasharray: 92.912168053 !important;
        }

        @keyframes path822 {
          0%, 0% {stroke-dashoffset: 92.912168053;}
          100.0%, 100% {stroke-dashoffset: 0;}
        }
</style>
  <style
     id="anim_d">
        .anim_d {
          animation-duration: 3.0s;
          animation-timing-function: ease-in-out;
          animation-delay: 0.0s;
          animation-iteration-count: infinite;
          animation-fill-mode: forwards;
          }
</style>
  <style
     id="pathanim_path824">
        #path824 {
          animation-name: path824;
          stroke-dasharray: 92.912168053 !important;
        }

        @keyframes path824 {
          0%, 0% {stroke-dashoffset: 92.912168053;}
          100.0%, 100% {stroke-dashoffset: 0;}
        }
</style>
  <style
     id="anim_e">
        .anim_e {
          animation-duration: 3.0s;
          animation-timing-function: linear;
          animation-delay: 0.0s;
          animation-iteration-count: infinite;
          animation-fill-mode: forwards;
          }
</style>
  <style
     id="pathanim_path826">
        #path826 {
          animation-name: path826;
          stroke-dasharray: 92.9057604911 !important;
        }

        @keyframes path826 {
          0%, 0% {stroke-dashoffset: 92.9057604911;}
          100.0%, 100% {stroke-dashoffset: 0;}
        }
</style>
</svg>
